<?xml version="1.0" encoding="utf-8"?>
<svg xmlns="http://www.w3.org/2000/svg" width="28" height="28" viewBox="2 2 24 24" fill="none">
  <path fill="currentColor" fill-rule="evenodd" d="M 10.748 4.096 C 10.85 3.638 11.255 3.313 11.724 3.313 L 15.724 3.313 C 16.193 3.313 16.598 3.638 16.7 4.096 L 17.14 6.077 C 17.54 6.267 17.92 6.487 18.28 6.737 L 20.218 6.127 C 20.665 5.986 21.15 6.175 21.384 6.581 L 23.384 10.045 C 23.618 10.451 23.539 10.965 23.194 11.282 L 21.697 12.655 C 21.733 13.093 21.733 13.533 21.697 13.971 L 23.194 15.344 C 23.539 15.661 23.618 16.175 23.384 16.581 L 21.384 20.045 C 21.15 20.451 20.665 20.639 20.218 20.499 L 18.281 19.889 C 17.921 20.139 17.541 20.359 17.141 20.549 L 16.701 22.529 C 16.6 22.987 16.193 23.313 15.724 23.313 L 11.724 23.313 C 11.255 23.313 10.85 22.987 10.748 22.53 L 10.308 20.549 C 9.908 20.359 9.528 20.139 9.168 19.889 L 7.23 20.499 C 6.783 20.639 6.298 20.451 6.064 20.045 L 4.064 16.581 C 3.83 16.175 3.908 15.661 4.254 15.344 L 5.751 13.971 C 5.715 13.533 5.715 13.093 5.751 12.655 L 4.254 11.283 C 3.908 10.966 3.83 10.452 4.064 10.046 L 6.064 6.582 C 6.298 6.176 6.783 5.987 7.23 6.128 L 9.167 6.738 C 9.527 6.488 9.907 6.268 10.307 6.078 L 10.747 4.098 L 10.748 4.096 Z M 13.931 17.38 C 17.01 17.38 18.935 14.046 17.395 11.38 C 16.68 10.142 15.36 9.38 13.931 9.38 C 10.852 9.38 8.927 12.713 10.467 15.38 C 11.181 16.617 12.502 17.38 13.931 17.38" clip-rule="evenodd"/>
</svg>